<svg width="28" height="28" viewBox="0 0 28 28" fill="none" xmlns="http://www.w3.org/2000/svg">
<g clip-path="url(#clip0_3264_336)">
<path d="M21.4375 0H6.5625C2.93813 0 0 2.93813 0 6.5625V21.4375C0 25.0619 2.93813 28 6.5625 28H21.4375C25.0619 28 28 25.0619 28 21.4375V6.5625C28 2.93813 25.0619 0 21.4375 0Z" fill="#5865F2"/>
<mask id="mask0_3264_336" style="mask-type:luminance" maskUnits="userSpaceOnUse" x="3" y="5" width="22" height="18">
<path d="M3.0625 5.57812H24.9375V22.5236H3.0625V5.57812Z" fill="white"/>
</mask>
<g mask="url(#mask0_3264_336)">
<path d="M21.5805 7.08716C20.1623 6.43614 18.6656 5.97191 17.1279 5.70608C17.114 5.7035 17.0995 5.70538 17.0867 5.71147C17.0739 5.71756 17.0633 5.72754 17.0564 5.73999C16.8641 6.0819 16.6511 6.52815 16.502 6.8788C14.8206 6.62702 13.1479 6.62702 11.501 6.8788C11.3519 6.52027 11.1311 6.0819 10.938 5.73999C10.9308 5.72779 10.9202 5.71803 10.9074 5.71198C10.8946 5.70594 10.8803 5.70388 10.8663 5.70608C9.32854 5.97137 7.83179 6.43563 6.41379 7.08716C6.40166 7.09231 6.39142 7.1011 6.38448 7.11232C3.54861 11.3491 2.77182 15.4817 3.15289 19.5631C3.15395 19.5731 3.15701 19.5828 3.1619 19.5916C3.16678 19.6004 3.17339 19.6081 3.18132 19.6143C5.05229 20.9884 6.86475 21.8226 8.64351 22.3755C8.65735 22.3796 8.67212 22.3794 8.68584 22.3749C8.69956 22.3704 8.71158 22.3618 8.72029 22.3503C9.14106 21.7757 9.51611 21.1698 9.83778 20.5327C9.84221 20.524 9.84474 20.5144 9.8452 20.5047C9.84566 20.4949 9.84405 20.4851 9.84046 20.476C9.83687 20.4669 9.8314 20.4587 9.82439 20.4518C9.81739 20.445 9.80901 20.4397 9.79982 20.4364C9.20482 20.2106 8.63837 19.9356 8.09346 19.6231C8.08354 19.6172 8.07521 19.609 8.0692 19.5992C8.06319 19.5894 8.05969 19.5782 8.05901 19.5667C8.05833 19.5552 8.06049 19.5437 8.06529 19.5333C8.0701 19.5228 8.07741 19.5137 8.08657 19.5067C8.20152 19.4208 8.3145 19.3322 8.42542 19.2411C8.43513 19.2331 8.44689 19.2279 8.45937 19.2262C8.47186 19.2245 8.48457 19.2264 8.49607 19.2315C12.0761 20.866 15.9518 20.866 19.4896 19.2315C19.5011 19.226 19.514 19.224 19.5267 19.2255C19.5393 19.227 19.5513 19.2322 19.5612 19.2403C19.6722 19.3319 19.7855 19.4207 19.9009 19.5067C19.9101 19.5136 19.9175 19.5227 19.9224 19.5331C19.9273 19.5435 19.9295 19.555 19.9289 19.5665C19.9283 19.578 19.9249 19.5892 19.919 19.599C19.9131 19.6089 19.9048 19.6171 19.8949 19.6231C19.3497 19.9414 18.7786 20.2132 18.1877 20.4355C18.1785 20.439 18.1702 20.4444 18.1632 20.4514C18.1563 20.4583 18.1509 20.4667 18.1474 20.4758C18.1439 20.485 18.1424 20.4948 18.1429 20.5046C18.1435 20.5144 18.1461 20.524 18.1506 20.5327C18.4779 21.1648 18.851 21.772 19.2671 22.3495C19.2756 22.3613 19.2875 22.3701 19.3013 22.3748C19.3151 22.3795 19.33 22.3797 19.3439 22.3755C21.1313 21.8226 22.9437 20.9884 24.8148 19.6143C24.8228 19.6084 24.8295 19.6009 24.8344 19.5922C24.8393 19.5835 24.8423 19.5739 24.8433 19.564C25.2994 14.8455 24.0793 10.7466 21.6089 7.11319C21.6029 7.10139 21.5928 7.09215 21.5805 7.08716ZM10.3724 17.078C9.29451 17.078 8.40639 16.0885 8.40639 14.8732C8.40639 13.658 9.27734 12.6685 10.3724 12.6685C11.476 12.6685 12.3555 13.6667 12.3382 14.8732C12.3382 16.0885 11.4674 17.078 10.3724 17.078ZM17.641 17.078C16.5631 17.078 15.6751 16.0885 15.6751 14.8732C15.6751 13.658 16.546 12.6685 17.641 12.6685C18.7446 12.6685 19.6241 13.6667 19.6069 14.8732C19.6069 16.0885 18.7446 17.078 17.641 17.078Z" fill="white"/>
</g>
</g>
<defs>
<clipPath id="clip0_3264_336">
<rect width="28" height="28" fill="white"/>
</clipPath>
</defs>
</svg>
