<svg width="72" height="51" viewBox="0 0 72 51" fill="none" xmlns="http://www.w3.org/2000/svg">
<path d="M53.1232 50.25L49.1278 45.6325C56.9283 43.6007 59.9724 38.4291 59.9724 38.4291C50.079 47.4795 23.0625 47.8489 12.5983 38.4291C12.5983 38.4291 15.2619 43.2313 23.2528 45.6325L18.8768 50.25C5.55882 50.0653 0.421875 41.3843 0.421875 41.3843C0.421875 22.1754 9.17371 6.84515 9.17371 6.84515C18.1158 0.75 26.2969 0.75 26.2969 0.75L26.8676 1.48881C15.8327 4.44403 11.0763 9.24627 11.0763 9.24627C24.0138 0.75 50.6498 1.48881 61.114 9.24627C61.3042 9.06157 54.8355 4.07463 44.7518 1.48881L45.7031 0.75C45.7031 0.75 53.8842 0.75 62.8263 6.84515C62.8263 6.84515 71.5781 22.1754 71.5781 41.3843C71.5781 41.3843 66.4412 50.0653 53.1232 50.25Z" fill="white"/>
<path d="M24.5846 35.8432C28.0522 35.8432 30.8631 32.9489 30.8631 29.3786C30.8631 25.8083 28.0522 22.9141 24.5846 22.9141C21.1171 22.9141 18.3062 25.8083 18.3062 29.3786C18.3062 32.9489 21.1171 35.8432 24.5846 35.8432Z" fill="#646465"/>
<path d="M46.6535 35.8432C50.121 35.8432 52.932 32.9489 52.932 29.3786C52.932 25.8083 50.121 22.9141 46.6535 22.9141C43.186 22.9141 40.375 25.8083 40.375 29.3786C40.375 32.9489 43.186 35.8432 46.6535 35.8432Z" fill="#646465"/>
</svg>
