<svg width="26" height="19" viewBox="0 0 26 19" fill="none" xmlns="http://www.w3.org/2000/svg">
<path d="M19.1641 18.5L17.7112 16.8209C20.5478 16.0821 21.6547 14.2015 21.6547 14.2015C18.0572 17.4925 8.23295 17.6269 4.42781 14.2015C4.42781 14.2015 5.39639 15.9478 8.30214 16.8209L6.7109 18.5C1.86798 18.4328 0 15.2761 0 15.2761C0 8.29105 3.18249 2.71642 3.18249 2.71642C6.43416 0.5 9.40909 0.5 9.40909 0.5L9.61664 0.768657C5.60394 1.84328 3.87433 3.58955 3.87433 3.58955C8.57888 0.5 18.2647 0.768657 22.0699 3.58955C22.139 3.52239 19.7868 1.70896 16.12 0.768657L16.4659 0.5C16.4659 0.5 19.4408 0.5 22.6925 2.71642C22.6925 2.71642 25.875 8.29105 25.875 15.2761C25.875 15.2761 24.007 18.4328 19.1641 18.5Z" fill="#008905"/>
<path d="M8.78651 13.2611C10.0474 13.2611 11.0696 12.2086 11.0696 10.9103C11.0696 9.61204 10.0474 8.55957 8.78651 8.55957C7.52559 8.55957 6.50342 9.61204 6.50342 10.9103C6.50342 12.2086 7.52559 13.2611 8.78651 13.2611Z" fill="white"/>
<path d="M16.8114 13.2611C18.0723 13.2611 19.0945 12.2086 19.0945 10.9103C19.0945 9.61204 18.0723 8.55957 16.8114 8.55957C15.5505 8.55957 14.5283 9.61204 14.5283 10.9103C14.5283 12.2086 15.5505 13.2611 16.8114 13.2611Z" fill="white"/>
</svg>
