<svg width="30" height="29" viewBox="0 0 30 29" fill="none" xmlns="http://www.w3.org/2000/svg">
<g id="instagram" clip-path="url(#clip0_720_10812)">
<g id="Group 469321">
<path id="Path 16" d="M7.39845 28.1351C6.26994 28.1229 5.15204 27.9226 4.09382 27.543C3.32106 27.2666 2.62191 26.8265 2.04748 26.255C1.45531 25.7002 0.999909 25.0234 0.715103 24.2749C0.323156 23.2509 0.116471 22.1691 0.104119 21.0772C0.0174485 19.2618 0 18.7173 0 14.1175C0 9.51769 0.0191647 8.97514 0.103261 7.15841C0.117112 6.06687 0.324051 4.98569 0.715103 3.96176C1.0013 3.21381 1.45605 2.53694 2.04634 1.98033C2.62006 1.40777 3.31954 0.967471 4.09296 0.692035C5.15118 0.312417 6.26908 0.112117 7.39759 0.0999298C9.27402 0.0168856 9.83752 0 14.5881 0C19.3387 0 19.9019 0.0185465 21.7792 0.0999298C22.9074 0.113239 24.0249 0.313504 25.0832 0.692035C25.8563 0.967834 26.5556 1.40798 27.1296 1.98005C27.7209 2.53568 28.1759 3.21259 28.4611 3.96093C28.8535 4.98499 29.0605 6.06684 29.0732 7.15896C29.159 8.97569 29.1765 9.51963 29.1765 14.1181C29.1765 18.7165 29.159 19.2604 29.0732 21.0772C29.0596 22.1691 28.8525 23.2507 28.4611 24.2749C28.165 25.0177 27.7114 25.6922 27.1297 26.255C26.5479 26.8179 25.8508 27.2566 25.0832 27.543C24.025 27.9227 22.9071 28.1231 21.7786 28.1354C19.903 28.2184 19.3392 28.2353 14.5875 28.2353C9.83581 28.2353 9.27374 28.2192 7.39817 28.1354" fill="url(#paint0_radial_720_10812)"/>
<path id="Path 17" d="M7.39845 28.1351C6.26994 28.1229 5.15204 27.9226 4.09382 27.543C3.32106 27.2666 2.62191 26.8265 2.04748 26.255C1.45531 25.7002 0.999909 25.0234 0.715103 24.2749C0.323156 23.2509 0.116471 22.1691 0.104119 21.0772C0.0174485 19.2618 0 18.7173 0 14.1175C0 9.51769 0.0191647 8.97514 0.103261 7.15841C0.117112 6.06687 0.324051 4.98569 0.715103 3.96176C1.0013 3.21381 1.45605 2.53694 2.04634 1.98033C2.62006 1.40777 3.31954 0.967471 4.09296 0.692035C5.15118 0.312417 6.26908 0.112117 7.39759 0.0999298C9.27402 0.0168856 9.83752 0 14.5881 0C19.3387 0 19.9019 0.0185465 21.7792 0.0999298C22.9074 0.113239 24.0249 0.313504 25.0832 0.692035C25.8563 0.967834 26.5556 1.40798 27.1296 1.98005C27.7209 2.53568 28.1759 3.21259 28.4611 3.96093C28.8535 4.98499 29.0605 6.06684 29.0732 7.15896C29.159 8.97569 29.1765 9.51963 29.1765 14.1181C29.1765 18.7165 29.159 19.2604 29.0732 21.0772C29.0596 22.1691 28.8525 23.2507 28.4611 24.2749C28.165 25.0177 27.7114 25.6922 27.1297 26.255C26.5479 26.8179 25.8508 27.2566 25.0832 27.543C24.025 27.9227 22.9071 28.1231 21.7786 28.1354C19.903 28.2184 19.3392 28.2353 14.5875 28.2353C9.83581 28.2353 9.27374 28.2192 7.39817 28.1354" fill="url(#paint1_radial_720_10812)"/>
<path id="Path 18" d="M11.0058 14.1776C11.0059 13.4861 11.2179 12.8101 11.6149 12.2351C12.012 11.6601 12.5763 11.212 13.2365 10.9475C13.8967 10.6829 14.6232 10.6137 15.3241 10.7487C16.0249 10.8837 16.6687 11.2168 17.1739 11.7058C17.6791 12.1949 18.0231 12.8179 18.1625 13.4962C18.3018 14.1745 18.2301 14.8775 17.9566 15.5164C17.683 16.1552 17.2199 16.7012 16.6256 17.0853C16.0314 17.4695 15.3328 17.6744 14.6183 17.6743C13.6601 17.6742 12.7412 17.3057 12.0637 16.6499C11.3863 15.9942 11.0058 15.1049 11.0058 14.1776ZM9.05246 14.1776C9.05246 15.2429 9.37889 16.2843 9.99047 17.17C10.602 18.0558 11.4713 18.7462 12.4883 19.1538C13.5053 19.5615 14.6244 19.6682 15.7041 19.4604C16.7837 19.2525 17.7755 18.7395 18.5539 17.9862C19.3322 17.233 19.8623 16.2732 20.0771 15.2284C20.2918 14.1836 20.1816 13.1006 19.7604 12.1164C19.3391 11.1322 18.6257 10.2909 17.7104 9.6991C16.7951 9.10725 15.7191 8.79135 14.6183 8.79135C13.8873 8.79131 13.1636 8.93061 12.4883 9.20128C11.813 9.47195 11.1994 9.8687 10.6826 10.3689C10.1657 10.869 9.75575 11.4628 9.47606 12.1163C9.19637 12.7698 9.05242 13.4703 9.05246 14.1776ZM19.1037 8.57793C19.1035 8.82687 19.1797 9.07025 19.3225 9.2773C19.4654 9.48435 19.6684 9.64576 19.906 9.74113C20.1436 9.8365 20.4051 9.86154 20.6575 9.81308C20.9098 9.76462 21.1416 9.64484 21.3236 9.46889C21.5055 9.29294 21.6295 9.06872 21.6798 8.82458C21.7301 8.58045 21.7045 8.32735 21.6061 8.09732C21.5078 7.86729 21.3412 7.67064 21.1274 7.53225C20.9135 7.39385 20.6621 7.31992 20.4049 7.31981C20.0601 7.31996 19.7294 7.45254 19.4855 7.68844C19.2417 7.92433 19.1045 8.24425 19.1042 8.57793M10.2398 22.7159C9.5525 22.7086 8.8716 22.5869 8.22694 22.3561C7.75943 22.1817 7.33483 21.9145 6.98047 21.5717C6.62611 21.2289 6.34985 20.8181 6.16945 20.3658C5.93083 19.7419 5.80504 19.083 5.7976 18.4178C5.74497 17.3122 5.73467 16.9801 5.73467 14.179C5.73467 11.3779 5.74611 11.0466 5.7976 9.93986C5.80594 9.27478 5.9317 8.61597 6.16945 7.99191C6.34964 7.53934 6.62582 7.12833 6.9802 6.78539C7.33458 6.44244 7.75929 6.17516 8.22694 6.00079C8.87157 5.76987 9.55249 5.64814 10.2398 5.64094C11.3823 5.59 11.7255 5.58004 14.6188 5.58004C17.5121 5.58004 17.8557 5.59083 18.9992 5.64121C19.6865 5.64928 20.3673 5.77099 21.0121 6.00107C21.4798 6.17546 21.9045 6.44274 22.2589 6.78568C22.6132 7.12863 22.8894 7.53963 23.0696 7.99219C23.3082 8.61602 23.434 9.27497 23.4415 9.94013C23.4941 11.0474 23.5044 11.3779 23.5044 14.1793C23.5044 16.9806 23.4938 17.3117 23.4415 18.4184C23.4335 19.0835 23.3077 19.7423 23.0696 20.3663C22.8892 20.8187 22.613 21.2295 22.2586 21.5723C21.9042 21.9151 21.4796 22.1822 21.0121 22.3566C20.3675 22.5875 19.6866 22.7093 18.9992 22.7165C17.8568 22.7674 17.5136 22.7774 14.6188 22.7774C11.7241 22.7774 11.382 22.7671 10.2398 22.7165M10.15 3.75223C9.25064 3.76935 8.36081 3.93408 7.51842 4.23942C6.79832 4.50886 6.14434 4.92096 5.59841 5.44927C5.05248 5.97759 4.62665 6.61047 4.34823 7.30735C4.03275 8.12257 3.86253 8.9837 3.8448 9.85404C3.79131 10.9724 3.7793 11.33 3.7793 14.1787C3.7793 17.0274 3.7916 17.3848 3.8448 18.5034C3.86252 19.3737 4.03274 20.2348 4.34823 21.0501C4.62667 21.7469 5.0525 22.3798 5.59843 22.9081C6.14435 23.4364 6.79832 23.8485 7.51842 24.118C8.36085 24.4232 9.25066 24.5879 10.15 24.6052C11.3062 24.6561 11.6752 24.6686 14.6188 24.6686C17.5625 24.6686 17.9318 24.6567 19.0876 24.6052C19.987 24.588 20.8768 24.4233 21.7192 24.118C22.4393 23.8485 23.0933 23.4364 23.6392 22.9081C24.1851 22.3798 24.611 21.7469 24.8894 21.0501C25.2053 20.2349 25.3755 19.3738 25.3928 18.5034C25.4455 17.3842 25.4575 17.0274 25.4575 14.1787C25.4575 11.33 25.4452 10.9726 25.3928 9.85404C25.3752 8.98369 25.2049 8.12256 24.8894 7.30735C24.611 6.61061 24.1853 5.97782 23.6395 5.44952C23.0937 4.92122 22.44 4.50905 21.7201 4.23942C20.8778 3.93388 19.9879 3.76914 19.0885 3.75223C17.9326 3.70102 17.5633 3.68884 14.6202 3.68884C11.6772 3.68884 11.307 3.70075 10.1506 3.75223" fill="white"/>
</g>
</g>
<defs>
<radialGradient id="paint0_radial_720_10812" cx="0" cy="0" r="1" gradientUnits="userSpaceOnUse" gradientTransform="translate(1.88816 27.6166) scale(37.0429 35.848)">
<stop offset="0.09" stop-color="#FA8F21"/>
<stop offset="0.78" stop-color="#D82D7E"/>
</radialGradient>
<radialGradient id="paint1_radial_720_10812" cx="0" cy="0" r="1" gradientUnits="userSpaceOnUse" gradientTransform="translate(20.2094 26.7098) scale(32.5981 31.5465)">
<stop offset="0.64" stop-color="#8C3AAA" stop-opacity="0"/>
<stop offset="1" stop-color="#8C3AAA"/>
</radialGradient>
<clipPath id="clip0_720_10812">
<rect width="30" height="29" fill="white"/>
</clipPath>
</defs>
</svg>
