<svg width="179" height="47" viewBox="0 0 179 47" fill="none" xmlns="http://www.w3.org/2000/svg">
<circle cx="28.4011" cy="13.364" r="8.36397" fill="white"/>
<circle cx="8.36397" cy="33.4011" r="8.36397" fill="white"/>
<path d="M4.40526 18.0975L12.7705 9.07278L16.0695 12.6042L16.3274 13.7822C17.7074 20.0856 22.6824 24.9776 29.0081 26.2514L33.9175 28.6744L25.5522 37.6992L21.4376 34.1314C19.3911 28.232 14.6953 23.6346 8.75387 21.7135L7.15462 21.1964L4.40526 18.0975Z" fill="white"/>
<circle cx="28.4011" cy="33.4011" r="8.36397" fill="white"/>
<circle cx="8.36397" cy="13.364" r="8.36397" fill="white"/>
<path d="M59.6288 14.9089V19.1575H55.0905V32H49.7314V19.1575H45.2414V14.9089H59.6288ZM66.4414 20.8956C66.9886 20.107 67.6565 19.4794 68.445 19.0127C69.2336 18.5299 70.0544 18.2885 70.9073 18.2885V24.0097H69.3865C68.3726 24.0097 67.6243 24.1867 67.1415 24.5407C66.6748 24.8948 66.4414 25.5224 66.4414 26.4237V32H61.0823V18.385H66.4414V20.8956ZM86.7624 18.385V32H81.4033V29.924C80.9849 30.5677 80.4216 31.0907 79.7135 31.4931C79.0215 31.8954 78.1927 32.0966 77.2271 32.0966C75.666 32.0966 74.4429 31.5735 73.5578 30.5275C72.6888 29.4814 72.2542 28.0652 72.2542 26.2788V18.385H77.5892V25.6029C77.5892 26.2466 77.7582 26.7616 78.0961 27.1479C78.4502 27.518 78.9169 27.7031 79.4962 27.7031C80.0917 27.7031 80.5584 27.518 80.8964 27.1479C81.2343 26.7616 81.4033 26.2466 81.4033 25.6029V18.385H86.7624ZM101.253 14.9089V19.1575H94.5419V21.5232H99.3699V25.5546H94.5419V32H89.1828V14.9089H101.253ZM117.48 18.385V32H112.121V29.924C111.702 30.5677 111.139 31.0907 110.431 31.4931C109.739 31.8954 108.91 32.0966 107.944 32.0966C106.383 32.0966 105.16 31.5735 104.275 30.5275C103.406 29.4814 102.971 28.0652 102.971 26.2788V18.385H108.306V25.6029C108.306 26.2466 108.475 26.7616 108.813 27.1479C109.167 27.518 109.634 27.7031 110.213 27.7031C110.809 27.7031 111.276 27.518 111.614 27.1479C111.952 26.7616 112.121 26.2466 112.121 25.6029V18.385H117.48ZM129.435 18.2885C130.996 18.2885 132.211 18.8115 133.08 19.8576C133.966 20.9036 134.408 22.3199 134.408 24.1062V32H129.073V24.7821C129.073 24.1384 128.896 23.6315 128.542 23.2613C128.204 22.8751 127.746 22.682 127.166 22.682C126.571 22.682 126.104 22.8751 125.766 23.2613C125.428 23.6315 125.259 24.1384 125.259 24.7821V32H119.9V18.385H125.259V20.4611C125.678 19.8173 126.233 19.2943 126.925 18.892C127.633 18.4896 128.47 18.2885 129.435 18.2885ZM136.008 25.1925C136.008 23.7602 136.249 22.521 136.732 21.475C137.231 20.4128 137.907 19.6081 138.76 19.061C139.613 18.4977 140.57 18.2161 141.632 18.2161C142.518 18.2161 143.274 18.4011 143.902 18.7713C144.545 19.1253 145.036 19.6162 145.374 20.2438V14.1364H150.733V32H145.374V30.1412C145.036 30.7689 144.545 31.2678 143.902 31.6379C143.274 31.992 142.518 32.169 141.632 32.169C140.57 32.169 139.613 31.8954 138.76 31.3482C137.907 30.785 137.231 29.9803 136.732 28.9342C136.249 27.8721 136.008 26.6248 136.008 25.1925ZM145.398 25.1925C145.398 24.4683 145.213 23.9051 144.843 23.5027C144.473 23.1004 143.998 22.8992 143.419 22.8992C142.839 22.8992 142.365 23.1004 141.995 23.5027C141.624 23.9051 141.439 24.4683 141.439 25.1925C141.439 25.9167 141.624 26.48 141.995 26.8823C142.365 27.2847 142.839 27.4858 143.419 27.4858C143.998 27.4858 144.473 27.2847 144.843 26.8823C145.213 26.48 145.398 25.9167 145.398 25.1925ZM166.32 25.0718C166.32 25.442 166.296 25.796 166.248 26.134H157.63C157.71 27.3088 158.201 27.8962 159.102 27.8962C159.682 27.8962 160.1 27.6307 160.358 27.0996H166.03C165.837 28.0652 165.427 28.9342 164.799 29.7067C164.188 30.4631 163.407 31.0666 162.458 31.5172C161.524 31.9517 160.494 32.169 159.368 32.169C158.016 32.169 156.809 31.8873 155.747 31.3241C154.701 30.7608 153.88 29.9561 153.284 28.9101C152.705 27.8479 152.415 26.6087 152.415 25.1925C152.415 23.7763 152.705 22.5452 153.284 21.4991C153.88 20.4369 154.701 19.6242 155.747 19.061C156.809 18.4977 158.016 18.2161 159.368 18.2161C160.72 18.2161 161.919 18.4977 162.965 19.061C164.027 19.6081 164.848 20.3967 165.427 21.4267C166.022 22.4567 166.32 23.6717 166.32 25.0718ZM160.889 23.7924C160.889 23.3418 160.744 23.0038 160.454 22.7785C160.164 22.5371 159.802 22.4164 159.368 22.4164C158.418 22.4164 157.863 22.8751 157.702 23.7924H160.889ZM173.374 20.8956C173.921 20.107 174.589 19.4794 175.378 19.0127C176.166 18.5299 176.987 18.2885 177.84 18.2885V24.0097H176.319C175.305 24.0097 174.557 24.1867 174.074 24.5407C173.607 24.8948 173.374 25.5224 173.374 26.4237V32H168.015V18.385H173.374V20.8956Z" fill="white"/>
</svg>
