<svg width="195" height="47" viewBox="0 0 195 47" fill="none" xmlns="http://www.w3.org/2000/svg">
<circle cx="28.4011" cy="13.364" r="8.36397" fill="#FED202"/>
<circle cx="8.36397" cy="33.4006" r="8.36397" fill="#2F61DF"/>
<path d="M4.40526 18.0975L12.7705 9.07278L16.0695 12.6042L16.3274 13.7822C17.7074 20.0856 22.6824 24.9776 29.0081 26.2514L33.9175 28.6744L25.5522 37.6992L21.4376 34.1314C19.3911 28.232 14.6953 23.6346 8.75387 21.7135L7.15462 21.1964L4.40526 18.0975Z" fill="#008905"/>
<circle cx="28.4011" cy="33.4006" r="8.36397" fill="#008905"/>
<circle cx="8.36397" cy="13.364" r="8.36397" fill="#008905"/>
<path d="M63.6288 14.9089V19.1575H59.0905V32H53.7314V19.1575H49.2414V14.9089H63.6288ZM70.4414 20.8956C70.9886 20.107 71.6565 19.4794 72.445 19.0127C73.2336 18.5299 74.0544 18.2885 74.9073 18.2885V24.0097H73.3865C72.3726 24.0097 71.6243 24.1867 71.1415 24.5407C70.6748 24.8948 70.4414 25.5224 70.4414 26.4237V32H65.0823V18.385H70.4414V20.8956ZM90.7624 18.385V32H85.4033V29.924C84.9849 30.5677 84.4216 31.0907 83.7135 31.4931C83.0215 31.8954 82.1927 32.0966 81.2271 32.0966C79.666 32.0966 78.4429 31.5735 77.5578 30.5275C76.6888 29.4814 76.2542 28.0652 76.2542 26.2788V18.385H81.5892V25.6029C81.5892 26.2466 81.7582 26.7616 82.0961 27.1479C82.4502 27.518 82.9169 27.7031 83.4962 27.7031C84.0917 27.7031 84.5584 27.518 84.8964 27.1479C85.2343 26.7616 85.4033 26.2466 85.4033 25.6029V18.385H90.7624ZM105.253 14.9089V19.1575H98.5419V21.5232H103.37V25.5546H98.5419V32H93.1828V14.9089H105.253ZM121.48 18.385V32H116.121V29.924C115.702 30.5677 115.139 31.0907 114.431 31.4931C113.739 31.8954 112.91 32.0966 111.944 32.0966C110.383 32.0966 109.16 31.5735 108.275 30.5275C107.406 29.4814 106.971 28.0652 106.971 26.2788V18.385H112.306V25.6029C112.306 26.2466 112.475 26.7616 112.813 27.1479C113.167 27.518 113.634 27.7031 114.213 27.7031C114.809 27.7031 115.276 27.518 115.614 27.1479C115.952 26.7616 116.121 26.2466 116.121 25.6029V18.385H121.48ZM133.435 18.2885C134.996 18.2885 136.211 18.8115 137.08 19.8576C137.966 20.9036 138.408 22.3199 138.408 24.1062V32H133.073V24.7821C133.073 24.1384 132.896 23.6315 132.542 23.2613C132.204 22.8751 131.746 22.682 131.166 22.682C130.571 22.682 130.104 22.8751 129.766 23.2613C129.428 23.6315 129.259 24.1384 129.259 24.7821V32H123.9V18.385H129.259V20.4611C129.678 19.8173 130.233 19.2943 130.925 18.892C131.633 18.4896 132.47 18.2885 133.435 18.2885ZM140.008 25.1925C140.008 23.7602 140.249 22.521 140.732 21.475C141.231 20.4128 141.907 19.6081 142.76 19.061C143.613 18.4977 144.57 18.2161 145.632 18.2161C146.518 18.2161 147.274 18.4011 147.902 18.7713C148.545 19.1253 149.036 19.6162 149.374 20.2438V14.1364H154.733V32H149.374V30.1412C149.036 30.7689 148.545 31.2678 147.902 31.6379C147.274 31.992 146.518 32.169 145.632 32.169C144.57 32.169 143.613 31.8954 142.76 31.3482C141.907 30.785 141.231 29.9803 140.732 28.9342C140.249 27.8721 140.008 26.6248 140.008 25.1925ZM149.398 25.1925C149.398 24.4683 149.213 23.9051 148.843 23.5027C148.473 23.1004 147.998 22.8992 147.419 22.8992C146.839 22.8992 146.365 23.1004 145.995 23.5027C145.624 23.9051 145.439 24.4683 145.439 25.1925C145.439 25.9167 145.624 26.48 145.995 26.8823C146.365 27.2847 146.839 27.4858 147.419 27.4858C147.998 27.4858 148.473 27.2847 148.843 26.8823C149.213 26.48 149.398 25.9167 149.398 25.1925ZM170.32 25.0718C170.32 25.442 170.296 25.796 170.248 26.134H161.63C161.71 27.3088 162.201 27.8962 163.102 27.8962C163.682 27.8962 164.1 27.6307 164.358 27.0996H170.03C169.837 28.0652 169.427 28.9342 168.799 29.7067C168.188 30.4631 167.407 31.0666 166.458 31.5172C165.524 31.9517 164.494 32.169 163.368 32.169C162.016 32.169 160.809 31.8873 159.747 31.3241C158.701 30.7608 157.88 29.9561 157.284 28.9101C156.705 27.8479 156.415 26.6087 156.415 25.1925C156.415 23.7763 156.705 22.5452 157.284 21.4991C157.88 20.4369 158.701 19.6242 159.747 19.061C160.809 18.4977 162.016 18.2161 163.368 18.2161C164.72 18.2161 165.919 18.4977 166.965 19.061C168.027 19.6081 168.848 20.3967 169.427 21.4267C170.022 22.4567 170.32 23.6717 170.32 25.0718ZM164.889 23.7924C164.889 23.3418 164.744 23.0038 164.454 22.7785C164.164 22.5371 163.802 22.4164 163.368 22.4164C162.418 22.4164 161.863 22.8751 161.702 23.7924H164.889ZM177.374 20.8956C177.921 20.107 178.589 19.4794 179.378 19.0127C180.166 18.5299 180.987 18.2885 181.84 18.2885V24.0097H180.319C179.305 24.0097 178.557 24.1867 178.074 24.5407C177.607 24.8948 177.374 25.5224 177.374 26.4237V32H172.015V18.385H177.374V20.8956Z" fill="#008905"/>
</svg>
