<svg width="115" height="129" viewBox="0 0 115 129" fill="none" xmlns="http://www.w3.org/2000/svg">
<path d="M69.3504 20.6791L25.2565 1.36707C24.3607 0.973366 23.3876 0.769588 22.4029 0.769531C21.0145 0.779277 19.6586 1.17586 18.4991 1.91138C17.3396 2.64691 16.426 3.68994 15.8686 4.91452L13.6321 9.73524C14.3359 9.74369 15.0372 9.81676 15.7266 9.95345L69.3504 20.6791Z" fill="white"/>
<path d="M13.4574 13.709C11.817 13.7198 10.2302 14.2726 8.9623 15.2748C7.69435 16.277 6.82207 17.6679 6.49127 19.2151L4.32422 29.149C5.41809 28.8113 6.55987 28.6394 7.7086 28.6396H8.66008L10.5374 20.0337C10.6734 19.3809 11.0372 18.7925 11.5683 18.3663C12.0995 17.94 12.7661 17.7016 13.4574 17.6905C13.6548 17.6907 13.8516 17.7104 14.0449 17.7491L68.492 28.6396H88.8225L14.8857 13.8508C14.4158 13.7566 13.9372 13.7091 13.4574 13.709Z" fill="white"/>
<path d="M49.9165 80.0777L50.1542 80.3962H57.4516C54.9472 80.3904 52.4645 79.9486 50.1232 79.0923L49.9165 80.0777Z" fill="white"/>
<path d="M114.301 81.3919V39.5879C114.317 37.7563 113.576 35.9936 112.243 34.6872C110.909 33.3808 109.092 32.6375 107.19 32.6206H7.71414C5.81202 32.6375 3.99466 33.3808 2.66127 34.6872C1.32789 35.9936 0.58753 37.7563 0.602827 39.5879V81.3919C0.594383 82.2991 0.771658 83.199 1.12452 84.0402C1.47738 84.8814 1.99892 85.6474 2.65932 86.2944C3.31973 86.9415 4.10606 87.4569 4.97339 87.8111C5.84072 88.1654 6.77204 88.3517 7.71414 88.3592H24.8206L23.4975 82.8252C23.1848 81.506 23.3451 80.1238 23.9523 78.9036L24.2004 78.4059H24.035C23.5666 78.4092 23.1111 78.2579 22.7444 77.9772C22.3777 77.6965 22.1218 77.3033 22.0195 76.8631C20.6344 71.0305 13.6782 72.195 13.3784 72.2547C13.0805 72.3053 12.7748 72.2932 12.4822 72.2193C12.1896 72.1455 11.9171 72.0115 11.6833 71.8267C11.4499 71.6396 11.2622 71.4052 11.1336 71.1403C11.005 70.8753 10.9386 70.5864 10.939 70.2939V50.6958C10.9385 50.4038 11.0047 50.1152 11.133 49.8506C11.2612 49.586 11.4484 49.3518 11.6812 49.1646C11.9141 48.9775 12.1868 48.842 12.4801 48.7677C12.7734 48.6935 13.0801 48.6823 13.3784 48.735C14.1226 48.8644 20.6758 49.8 22.0195 44.1266C22.1213 43.6854 22.3767 43.2908 22.7432 43.0084C23.1098 42.726 23.5656 42.5727 24.035 42.5739H31.6115C32.1597 42.5739 32.6856 42.7837 33.0732 43.157C33.4609 43.5303 33.6787 44.0366 33.6787 44.5646C33.6787 45.0926 33.4609 45.5989 33.0732 45.9722C32.6856 46.3455 32.1597 46.5553 31.6115 46.5553H25.5648C23.6216 51.5021 18.7636 52.8458 15.0735 52.8557V68.1341C18.7636 68.144 23.6216 69.4778 25.5648 74.4246H26.1953L32.242 62.3412C33.2471 60.31 34.9277 58.6601 37.0173 57.6532C37.193 57.5636 37.3584 57.484 37.5341 57.4143C37.3554 57.4763 37.1825 57.5529 37.0173 57.6433C37.5862 53.8694 39.2693 50.3326 41.8664 47.4537C44.4634 44.5749 47.8649 42.4754 51.6658 41.4053C55.4668 40.3352 59.507 40.3395 63.3055 41.4177C67.1039 42.4959 70.5006 44.6026 73.091 47.4869C75.6815 50.3713 77.3565 53.9117 77.9167 57.6867C78.4769 61.4618 77.8987 65.3123 76.2509 68.7798C74.603 72.2474 71.9551 75.1859 68.6222 77.2454C65.2894 79.3049 61.4121 80.3987 57.452 80.3966H86.9929C88.4176 80.3974 89.7987 80.8695 90.9051 81.7338C92.0115 82.598 92.776 83.8021 93.0706 85.1443L93.7631 88.3592H107.19C108.132 88.3517 109.063 88.1654 109.931 87.8111C110.798 87.4569 111.584 86.9415 112.245 86.2944C112.905 85.6474 113.427 84.8814 113.78 84.0402C114.132 83.199 114.31 82.2991 114.301 81.3919ZM103.965 70.2939C103.965 70.5864 103.899 70.8753 103.77 71.1403C103.642 71.4052 103.454 71.6396 103.221 71.8267C102.987 72.0115 102.714 72.1455 102.422 72.2193C102.129 72.2932 101.824 72.3053 101.526 72.2547C100.792 72.1253 94.2283 71.1798 92.8846 76.8631C92.7822 77.3033 92.5264 77.6965 92.1597 77.9772C91.7929 78.2579 91.3375 78.4092 90.869 78.4059H83.2926C82.7443 78.4059 82.2185 78.1962 81.8308 77.8228C81.4431 77.4495 81.2253 76.9432 81.2253 76.4152C81.2253 75.8873 81.4431 75.3809 81.8308 75.0076C82.2185 74.6343 82.7443 74.4246 83.2926 74.4246H89.3392C91.2825 69.4877 96.1405 68.144 99.8305 68.1341V52.8557C96.1405 52.8458 91.2825 51.5021 89.3392 46.5553H83.2926C82.7443 46.5553 82.2185 46.3455 81.8308 45.9722C81.4431 45.5989 81.2253 45.0926 81.2253 44.5646C81.2253 44.0366 81.4431 43.5303 81.8308 43.157C82.2185 42.7837 82.7443 42.5739 83.2926 42.5739H90.869C91.3385 42.5727 91.7942 42.726 92.1608 43.0084C92.5274 43.2908 92.7827 43.6854 92.8846 44.1266C94.2696 49.9493 101.226 48.7848 101.526 48.735C101.824 48.6823 102.131 48.6935 102.424 48.7677C102.717 48.842 102.99 48.9775 103.223 49.1646C103.456 49.3518 103.643 49.586 103.771 49.8506C103.899 50.1152 103.966 50.4038 103.965 50.6958V70.2939Z" fill="white"/>
<path d="M97.9595 127.038C98.2036 127.508 98.6273 127.869 99.1417 128.045C99.6562 128.222 100.222 128.199 100.719 127.983C101.213 127.756 101.593 127.35 101.777 126.854C101.961 126.358 101.934 125.812 101.701 125.336L93.7114 109.092L95.2101 108.475C95.5059 108.361 95.7752 108.192 96.0024 107.978C96.2295 107.763 96.41 107.507 96.5332 107.224C96.6563 106.941 96.7198 106.638 96.7198 106.332C96.7198 106.025 96.6563 105.722 96.5331 105.439L91.5614 94.7888C91.3835 94.3968 91.0931 94.0618 90.7242 93.8234L89.5355 88.359L89.0187 85.9602C88.9208 85.5127 88.666 85.1112 88.2972 84.8231C87.9283 84.5349 87.4678 84.3777 86.9928 84.3777H48.0666L45.4929 81.0234L48.2423 68.1338C48.5708 66.6117 48.3096 65.0265 47.508 63.677C46.7064 62.3276 45.4198 61.3072 43.8908 60.8082C42.3841 60.3342 40.75 60.4028 39.2919 61.0014C37.8338 61.6 36.6509 62.6879 35.9629 64.0629L27.6836 80.6352C27.4781 81.0398 27.4233 81.5002 27.5286 81.9391L29.0583 88.359L31.4356 98.3223C31.5029 98.5988 31.6308 98.8582 31.8109 99.0832C31.991 99.3081 32.219 99.4932 32.4796 99.6262L51.4156 109.41C51.303 109.68 51.2477 109.969 51.253 110.259C51.2584 110.55 51.3242 110.837 51.4466 111.102L56.4183 121.752C56.6234 122.19 56.9565 122.561 57.3769 122.819C57.7973 123.077 58.2867 123.211 58.7853 123.206C59.1409 123.203 59.4924 123.132 59.8189 122.997L61.8241 122.17L63.7983 126.928C64.0092 127.413 64.4077 127.799 64.9094 128.005C65.4111 128.212 65.9766 128.221 66.4858 128.033C66.7386 127.937 66.9692 127.793 67.1643 127.611C67.3594 127.429 67.5152 127.211 67.6227 126.971C67.7303 126.73 67.7875 126.472 67.791 126.21C67.7946 125.948 67.7444 125.688 67.6434 125.445L65.6279 120.618L89.8973 110.654C89.8973 110.654 97.9595 127.028 97.9595 127.038ZM55.4467 106.972L35.26 96.5506L33.3065 88.359L31.7251 81.7301L39.6943 65.7948C39.9408 65.2884 40.3712 64.8863 40.9043 64.6645C41.4375 64.4426 42.0365 64.4163 42.5884 64.5905C43.1572 64.7787 43.6344 65.1613 43.9297 65.6658C44.225 66.1703 44.3178 66.7616 44.1905 67.3276L41.2551 81.0931C41.1989 81.3666 41.202 81.6484 41.2643 81.9207C41.3265 82.1931 41.4466 82.4501 41.6168 82.6757L45.3689 87.5528C45.5613 87.8033 45.8122 88.0067 46.1012 88.1468C46.3903 88.2868 46.7094 88.3595 47.033 88.359H85.3183L86.5794 94.1917L55.4467 106.972Z" fill="white"/>
<path d="M57.4518 47.5503C56.9036 47.5503 56.3778 47.7601 55.9901 48.1334C55.6024 48.5067 55.3846 49.013 55.3846 49.541V51.0301C53.8382 51.3757 52.4968 52.2969 51.6539 53.5923C51.1032 54.4908 50.8107 55.5143 50.8064 56.5576C50.8022 57.6009 51.0863 58.6266 51.6296 59.5293C52.9156 61.7017 55.206 62.3695 57.0451 62.906C58.9659 63.4659 59.7755 63.7828 60.0531 64.6663C60.1237 65.0248 60.0598 65.3957 59.8729 65.7131C59.6861 66.0305 59.3883 66.2737 59.0326 66.3994C58.5865 66.5778 58.1066 66.6641 57.6237 66.6527C57.1409 66.6413 56.6659 66.5325 56.2295 66.3333C55.7703 66.1475 55.3569 65.8708 55.0161 65.5212C54.6752 65.1715 54.4146 64.7567 54.251 64.3037C54.0862 63.8175 53.7333 63.4111 53.2655 63.1689C52.7977 62.9266 52.2509 62.8672 51.7388 63.003C52.4701 64.7681 52.6816 66.6933 52.3498 68.5666C52.9989 69.1511 53.7448 69.6269 54.5569 69.9744C54.8269 70.0889 55.1032 70.189 55.3846 70.2744V71.4383C55.3846 71.9662 55.6024 72.4726 55.9901 72.8459C56.3778 73.2192 56.9036 73.4289 57.4518 73.4289C58.0001 73.4289 58.5259 73.2192 58.9136 72.8459C59.3013 72.4726 59.5191 71.9662 59.5191 71.4383V70.4225C59.938 70.3264 60.3469 70.1933 60.7404 70.025C62.0159 69.512 63.0526 68.5676 63.6554 67.3698C64.2581 66.1719 64.3852 64.8032 64.0129 63.5213C63.064 60.5003 60.2781 59.6887 58.2432 59.0958C56.6554 58.6321 55.6602 58.2977 55.2201 57.5532C55.0456 57.2712 54.9497 56.9507 54.9415 56.6226C54.9334 56.2944 55.0133 55.9698 55.1736 55.6802C55.7449 54.785 57.2328 54.6139 58.3714 54.8326C58.8961 54.9648 59.3776 55.2226 59.7712 55.582C60.1647 55.9414 60.4575 56.3908 60.6223 56.8884C60.6909 57.1423 60.811 57.3807 60.9756 57.5898C61.1402 57.7989 61.3461 57.9746 61.5815 58.1068C61.8168 58.239 62.077 58.3251 62.3471 58.3601C62.6171 58.3952 62.8917 58.3784 63.155 58.3109C63.4183 58.2434 63.6651 58.1264 63.8813 57.9667C64.0975 57.807 64.2788 57.6077 64.4147 57.3803C64.5506 57.1529 64.6385 56.9018 64.6733 56.6416C64.7081 56.3813 64.6892 56.117 64.6175 55.8639C64.2695 54.7037 63.6179 53.6489 62.7251 52.8008C61.8324 51.9526 60.7285 51.3393 59.5191 51.0197V49.541C59.5191 49.013 59.3012 48.5067 58.9136 48.1334C58.5259 47.7601 58.0001 47.5503 57.4518 47.5503Z" fill="white"/>
</svg>
