<svg width="111" height="48" viewBox="0 0 111 48" fill="none" xmlns="http://www.w3.org/2000/svg">
<g id="Group 469486">
<path id="Vector 26" d="M2.27051 45.8874C7.63055 36.5726 9.87728 32.9619 14.4309 24.1692C18.2975 16.7032 15.1753 21.425 15.6688 22.0912C18.0239 25.2709 20.0752 25.44 24.4796 26.9175C34.2572 30.1974 44.4091 32.0966 54.2982 34.9613C58.9987 36.3229 56.3838 36.5746 52.3321 36.9722C43.3419 37.8544 28.5476 38.9236 22.0039 31.3416C18.4459 27.219 21.8763 21.8067 26.3729 20.3484C34.6574 17.6616 43.7738 24.8359 45.1596 32.0119C46.9839 41.458 34.0715 41.0327 31.1424 34.1234C30.8987 33.5486 30.6633 32.3814 31.3244 32.28C32.0185 32.1735 32.2334 33.3069 32.4531 33.9223C32.961 35.3454 32.2866 39.8187 31.8342 38.3799C30.2981 33.4952 74.5107 34.8785 76.9806 35.0953C131.432 39.8753 59.8101 34.2646 98.2795 37.8436C103.29 38.3097 104.74 37.2366 109.093 36.2348" stroke="white" stroke-width="3" stroke-linecap="round"/>
<path id="Vector 27" d="M23.8975 38.0444C39.9769 -35.5337 17.8975 65.6667 30.3782 8.01432C30.8213 5.96748 31.6533 -0.0443264 32.1986 1.98149C34.6123 10.9485 35.0291 20.4383 37.9511 29.3638C40.0904 35.8982 46.1242 43.24 54.6262 42.4014C57.449 42.123 61.5549 40.1186 58.7767 36.6367C53.5171 30.0449 40.343 30.6721 32.7811 31.0731C30.8052 31.1779 28.8488 31.5385 26.9194 31.9445C26.2839 32.0782 25.232 32.0884 25.1353 32.6819C24.8559 34.397 28.7469 33.6929 30.5966 34.0225C39.5779 35.6227 50.4872 39.1908 59.6141 36.6702C69.0687 34.0592 78.2917 25.9141 78.2917 16.3262" stroke="white" stroke-width="3" stroke-linecap="round"/>
</g>
</svg>
