<svg width="83" height="82" viewBox="0 0 83 82" fill="none" xmlns="http://www.w3.org/2000/svg">
<path fill-rule="evenodd" clip-rule="evenodd" d="M65.6428 32.4037C65.9186 32.4037 66.1831 32.5238 66.3781 32.7374C66.5731 32.9511 66.6827 33.2409 66.6827 33.543C66.6827 33.8452 66.5731 34.1349 66.3781 34.3486C66.1831 34.5622 65.9186 34.6823 65.6428 34.6823H58.705C58.4292 34.6823 58.1647 34.5622 57.9697 34.3486C57.7747 34.1349 57.6651 33.8452 57.6651 33.543C57.6651 33.2409 57.7747 32.9511 57.9697 32.7374C58.1647 32.5238 58.4292 32.4037 58.705 32.4037H65.6428ZM28.8751 32.4037C29.1509 32.4037 29.4154 32.5238 29.6104 32.7374C29.8054 32.9511 29.915 33.2409 29.915 33.543C29.915 33.8452 29.8054 34.1349 29.6104 34.3486C29.4154 34.5622 29.1509 34.6823 28.8751 34.6823H21.9317C21.6559 34.6823 21.3914 34.5622 21.1964 34.3486C21.0014 34.1349 20.8918 33.8452 20.8918 33.543C20.8918 33.2409 21.0014 32.9511 21.1964 32.7374C21.3914 32.5238 21.6559 32.4037 21.9317 32.4037H28.8751ZM49.8993 26.8504C48.4854 25.3009 46.6249 24.3365 44.6348 24.1216C42.6446 23.9066 40.648 24.4544 38.9852 25.6715C37.3224 26.8886 36.0963 28.6998 35.5158 30.7964C34.9353 32.893 35.0363 35.1453 35.8017 37.1694C36.567 39.1935 37.9494 40.8643 39.7131 41.8969C41.4768 42.9295 43.5128 43.2601 45.4741 42.8324C47.4354 42.4046 49.2007 41.245 50.469 39.5512C51.7374 37.8573 52.4304 35.7339 52.4299 33.543C52.4314 32.2995 52.2086 31.0679 51.7743 29.919C51.34 28.7701 50.7028 27.7266 49.8993 26.8483V26.8504ZM43.7886 21.7951C46.27 21.7956 48.6744 22.7386 50.5922 24.4636C52.51 26.1886 53.8225 28.5888 54.3061 31.2551C54.7897 33.9215 54.4144 36.6891 53.2442 39.0864C52.074 41.4836 50.1813 43.3621 47.8886 44.4018C45.596 45.4415 43.0451 45.578 40.6709 44.7881C38.2966 43.9982 36.2458 42.3308 34.8678 40.07C33.4899 37.8092 32.8702 35.0948 33.1142 32.3895C33.3582 29.6842 34.451 27.1552 36.2062 25.2336C37.2009 24.1409 38.3829 23.2743 39.6844 22.6837C40.9858 22.0931 42.3809 21.79 43.7896 21.792L43.7886 21.7951ZM47.3497 28.5064C47.5075 28.7422 47.5766 29.0353 47.5426 29.3253C47.5086 29.6153 47.3742 29.8798 47.1671 30.0642C46.96 30.2486 46.6962 30.3388 46.4302 30.316C46.1642 30.2932 45.9163 30.1593 45.7379 29.9419C45.5231 29.6687 45.2518 29.4556 44.9467 29.3205C44.5801 29.1521 44.1861 29.0668 43.7886 29.0698C43.1903 29.0551 42.6045 29.2583 42.123 29.6478C41.9525 29.7622 41.8116 29.9226 41.7139 30.1138C41.6161 30.3049 41.5648 30.5203 41.5648 30.7394C41.5648 30.9585 41.6161 31.1739 41.7139 31.365C41.8116 31.5561 41.9525 31.7166 42.123 31.831C42.6046 32.22 43.1904 32.4233 43.7886 32.4089C44.8538 32.3958 45.8926 32.7719 46.7409 33.4778C47.1602 33.8054 47.5021 34.238 47.7379 34.7396C47.9738 35.2413 48.0968 35.7974 48.0968 36.3616C48.0968 36.9259 47.9738 37.482 47.7379 37.9837C47.5021 38.4853 47.1602 38.9179 46.7409 39.2455C46.1793 39.7195 45.5256 40.0452 44.8304 40.1973V40.7721C44.8304 41.0743 44.7208 41.3641 44.5258 41.5777C44.3308 41.7914 44.0663 41.9114 43.7905 41.9114C43.5147 41.9114 43.2503 41.7914 43.0552 41.5777C42.8602 41.3641 42.7507 41.0743 42.7507 40.7721V40.1973C42.429 40.125 42.1148 40.017 41.8129 39.8752C41.1992 39.5922 40.6569 39.1509 40.2323 38.5889C40.1334 38.4752 40.057 38.3404 40.0079 38.1928C39.9589 38.0453 39.9382 37.8882 39.9472 37.7315C39.9561 37.5747 39.9946 37.4217 40.0601 37.2821C40.1256 37.1424 40.2168 37.0191 40.3279 36.9198C40.439 36.8206 40.5676 36.7476 40.7057 36.7054C40.8438 36.6632 40.9883 36.6528 41.1302 36.6747C41.2722 36.6967 41.4084 36.7505 41.5305 36.8329C41.6525 36.9153 41.7577 37.0244 41.8394 37.1534C42.054 37.4286 42.3256 37.6434 42.6316 37.78C42.9978 37.9486 43.3914 38.0339 43.7886 38.0307C44.3873 38.0456 44.9735 37.8423 45.4553 37.4528C45.6258 37.3383 45.7666 37.1779 45.8644 36.9867C45.9621 36.7956 46.0134 36.5802 46.0134 36.3611C46.0134 36.1421 45.9621 35.9267 45.8644 35.7355C45.7666 35.5444 45.6258 35.3839 45.4553 35.2695C44.9735 34.8799 44.3873 34.6766 43.7886 34.6916C42.7233 34.7016 41.6852 34.3226 40.8383 33.6145C40.4193 33.2866 40.0778 32.8538 39.8422 32.3522C39.6066 31.8507 39.4837 31.2947 39.4837 30.7306C39.4837 30.1665 39.6066 29.6105 39.8422 29.1089C40.0778 28.6073 40.4193 28.1746 40.8383 27.8467C41.3999 27.3729 42.0537 27.0472 42.7488 26.8949V26.3201C42.7488 26.0179 42.8583 25.7282 43.0533 25.5145C43.2484 25.3008 43.5129 25.1808 43.7886 25.1808C44.0644 25.1808 44.3289 25.3008 44.5239 25.5145C44.719 25.7282 44.8285 26.0179 44.8285 26.3201V26.8939C45.1503 26.9664 45.4645 27.0747 45.7663 27.217C46.3801 27.5003 46.9226 27.9415 47.3478 28.5033L47.3497 28.5064ZM18.5464 38.4584L41.5 53.652L69.0309 35.4238V23.7992C67.8017 23.5635 66.6688 22.9183 65.7864 21.9516C64.9041 20.9849 64.3152 19.7437 64.1 18.397H23.4773C23.2621 19.7437 22.6732 20.9849 21.7909 21.9516C20.9085 22.9183 19.7756 23.5635 18.5464 23.7992V38.4584ZM73.4607 32.4959V15.6649C73.4582 14.9817 73.2094 14.3274 72.7685 13.8443C72.3276 13.3613 71.7303 13.0887 71.1068 13.086H16.4667C15.8432 13.0887 15.2459 13.3613 14.805 13.8443C14.3641 14.3274 14.1153 14.9817 14.1128 15.6649V35.5264L16.4591 37.0799V22.7552C16.4591 22.6056 16.486 22.4575 16.5383 22.3192C16.5906 22.181 16.6672 22.0554 16.7637 21.9496C16.8603 21.8439 16.9749 21.7599 17.1011 21.7027C17.2272 21.6454 17.3625 21.616 17.499 21.616C18.0215 21.6161 18.5389 21.5035 19.0216 21.2845C19.5043 21.0656 19.943 20.7446 20.3125 20.3398C20.6819 19.9351 20.975 19.4546 21.175 18.9258C21.375 18.397 21.4779 17.8302 21.4779 17.2578C21.4779 16.9556 21.5875 16.6658 21.7825 16.4522C21.9775 16.2385 22.242 16.1185 22.5178 16.1185H65.0529C65.3287 16.1185 65.5932 16.2385 65.7882 16.4522C65.9832 16.6658 66.0928 16.9556 66.0928 17.2578C66.0925 17.8302 66.1952 18.397 66.3951 18.9259C66.5949 19.4548 66.8879 19.9353 67.2573 20.3401C67.6268 20.7448 68.0654 21.0658 68.5481 21.2848C69.0309 21.5037 69.5483 21.6162 70.0707 21.616C70.3465 21.616 70.611 21.736 70.806 21.9496C71.001 22.1633 71.1106 22.4531 71.1106 22.7552V34.0495L73.4569 32.4959H73.4607ZM50.2443 5.78642L41.5 0L32.7557 5.78642H50.2443ZM82.0273 26.8255L75.5451 22.5346V31.1164L82.0273 26.8255ZM83 80.5739V28.8472L51.7398 49.5383L83 80.5739ZM1.65433 82L33.114 50.7645L40.9602 55.9596C41.1252 56.0686 41.3145 56.1252 41.5071 56.1232C41.6998 56.1212 41.8881 56.0606 42.0511 55.9482L49.8832 50.7645L81.3457 82H1.65433ZM0 28.8472V80.5739L31.2602 49.5383L0 28.8472ZM7.45393 22.5346V31.1174L0.972745 26.8255L7.45582 22.5346H7.45393ZM68.8815 10.8033V10.6542C68.879 9.97088 68.6301 9.31636 68.189 8.83329C67.7479 8.35022 67.1504 8.07776 66.5267 8.0753H11.8932C11.2697 8.07803 10.6724 8.35061 10.2315 8.83365C9.79061 9.3167 9.54182 9.97106 9.53933 10.6542V32.4959L12.0331 34.1468V15.6649C12.0346 14.376 12.5026 13.1404 13.3344 12.2291C14.1663 11.3177 15.2941 10.805 16.4705 10.8033H68.8815Z" fill="white"/>
</svg>
