<svg width="28" height="28" viewBox="0 0 28 28" fill="none" xmlns="http://www.w3.org/2000/svg">
<g id="logos:telegram" clip-path="url(#clip0_3320_331)">
<path id="Vector" d="M14 0C10.2878 0 6.72437 1.47591 4.10156 4.10047C1.47604 6.72607 0.000727278 10.2869 0 14C0 17.7115 1.47656 21.275 4.10156 23.8995C6.72437 26.5241 10.2878 28 14 28C17.7122 28 21.2756 26.5241 23.8984 23.8995C26.5234 21.275 28 17.7115 28 14C28 10.2885 26.5234 6.72503 23.8984 4.10047C21.2756 1.47591 17.7122 0 14 0Z" fill="url(#paint0_linear_3320_331)"/>
<path id="Vector_2" d="M6.33699 13.8522C10.4189 12.0742 13.1401 10.9019 14.5007 10.3355C18.3901 8.71833 19.1973 8.43745 19.7245 8.42794C19.8404 8.42608 20.0985 8.45474 20.267 8.59091C20.407 8.70575 20.4464 8.86106 20.466 8.97011C20.4835 9.07905 20.5076 9.32733 20.4879 9.52114C20.2779 11.7349 19.3657 17.107 18.902 19.5865C18.7073 20.6356 18.3201 20.9874 17.9461 21.0217C17.1323 21.0965 16.5154 20.4845 15.7279 19.9684C14.4964 19.1606 13.8007 18.6579 12.6042 17.8697C11.2217 16.9589 12.1186 16.4581 12.9061 15.64C13.1117 15.4259 16.6948 12.1676 16.7626 11.872C16.7714 11.8351 16.7801 11.6973 16.697 11.6246C16.6161 11.5518 16.4957 11.5767 16.4082 11.5964C16.2836 11.6244 14.317 12.9255 10.502 15.4996C9.94418 15.8833 9.43886 16.0703 8.98386 16.0605C8.48511 16.0497 7.52261 15.7778 6.8073 15.5455C5.9323 15.2605 5.23449 15.1098 5.29574 14.6257C5.32636 14.3737 5.67418 14.1158 6.33699 13.8522Z" fill="white"/>
</g>
<defs>
<linearGradient id="paint0_linear_3320_331" x1="1400" y1="0" x2="1400" y2="2800" gradientUnits="userSpaceOnUse">
<stop stop-color="#2AABEE"/>
<stop offset="1" stop-color="#229ED9"/>
</linearGradient>
<clipPath id="clip0_3320_331">
<rect width="28" height="28" fill="white"/>
</clipPath>
</defs>
</svg>
