<svg width="29" height="28" viewBox="0 0 29 28" fill="none" xmlns="http://www.w3.org/2000/svg">
<g clip-path="url(#clip0_720_10800)">
<path d="M22.4908 0H6.50918C2.91426 0 0 2.81377 0 6.28472V21.7153C0 25.1862 2.91426 28 6.50918 28H22.4908C26.0857 28 29 25.1862 29 21.7153V6.28472C29 2.81377 26.0857 0 22.4908 0Z" fill="#FD3832"/>
<path fill-rule="evenodd" clip-rule="evenodd" d="M8.03619 19.1742C7.74632 19.0894 7.48183 18.9385 7.26504 18.7343C7.04826 18.53 6.88554 18.2784 6.79061 18.0007C6.24818 16.5653 6.08746 10.5715 7.13214 9.3883C7.47983 9.00339 7.97072 8.7664 8.49827 8.72879C11.3008 8.43783 19.9596 8.47663 20.9541 8.82578C21.2338 8.91339 21.4893 9.06099 21.7016 9.2575C21.9138 9.45402 22.0772 9.69436 22.1796 9.96052C22.7723 11.4444 22.7923 16.8369 22.0992 18.2626C21.9154 18.6337 21.6076 18.9343 21.2253 19.116C20.1806 19.6204 9.42241 19.6107 8.03619 19.1742ZM12.4861 16.3616L17.5087 13.84L12.4861 11.2989V16.3616Z" fill="white"/>
</g>
<defs>
<clipPath id="clip0_720_10800">
<rect width="29" height="28" fill="white"/>
</clipPath>
</defs>
</svg>
