<svg width="59" height="52" viewBox="0 0 59 52" fill="none" xmlns="http://www.w3.org/2000/svg">
<path id="Vector" d="M2.95 0H56.05C56.8324 0 57.5827 0.302455 58.136 0.840828C58.6892 1.3792 59 2.10939 59 2.87077V48.803C59 49.5644 58.6892 50.2946 58.136 50.833C57.5827 51.3713 56.8324 51.6738 56.05 51.6738H2.95C2.16761 51.6738 1.41727 51.3713 0.864035 50.833C0.310803 50.2946 0 49.5644 0 48.803V2.87077C0 2.10939 0.310803 1.3792 0.864035 0.840828C1.41727 0.302455 2.16761 0 2.95 0ZM37.7393 19.5011L30.5118 26.5345L24.2549 20.4427L11.7381 32.6234L15.9093 36.6826L24.2549 28.5641L30.5118 34.6501L41.9106 23.5604L47.2 28.7077V14.3538H32.45L37.7393 19.5011Z" fill="#FED202"/>
</svg>
